<svg width="273" height="390" viewBox="0 0 273 390" fill="none" xmlns="http://www.w3.org/2000/svg">
    <path
        d="M136.19 386.583C141.773 386.583 154.351 386.583 159.993 386.583C167.046 386.583 212.889 355.173 234.047 323.763C255.206 292.353 259.614 286.567 264.903 206.389C270.193 126.211 272.838 117.945 257.851 84.0558C242.863 50.1662 212.889 3.87793 136.19 3.87793"
        stroke="white" stroke-opacity="0.5" stroke-width="6" />
    <path
        d="M136.19 386.583C130.606 386.583 118.029 386.583 112.387 386.583C105.334 386.583 59.4905 355.173 38.3321 323.763C17.1736 292.353 12.7656 286.567 7.47603 206.389C2.18643 126.211 -0.458375 117.945 14.5288 84.0558C29.5161 50.1662 59.4905 3.87793 136.19 3.87793"
        stroke="white" stroke-opacity="0.5" stroke-width="6" />
</svg>
